<?xml version="1.0"?>
<svg xmlns="http://www.w3.org/2000/svg" id="Layer_1" data-name="Layer 1" viewBox="0 0 64 64"><title>Icons8 RSL Colored Part 9</title><polygon points="53 27 27 27 27 5 37 5 40 9 53 9 53 27" style="fill:#c5e4fa;"/><path d="M30,5h7l4,5H27V8A3,3,0,0,1,30,5Z" style="fill:#e3f2ff;"/><rect x="53" y="11" width="4" height="16" style="fill:#acb7d0;"/><rect x="27" y="22" width="26" height="5" style="fill:#afd7ef;"/><polygon points="53 57 27 57 27 35 37 35 40 39 53 39 53 57" style="fill:#c5e4fa;"/><path d="M30,35h7l4,5H27V38A3,3,0,0,1,30,35Z" style="fill:#e3f2ff;"/><rect x="53" y="41" width="4" height="16" style="fill:#acb7d0;"/><rect x="27" y="52" width="26" height="5" style="fill:#afd7ef;"/><path d="M30,54a1,1,0,0,0,1-1V51a1,1,0,0,0-2,0v2A1,1,0,0,0,30,54Z" style="fill:#8d6c9f;"/><path d="M35,54a1,1,0,0,0,1-1V51a1,1,0,0,0-2,0v2A1,1,0,0,0,35,54Z" style="fill:#8d6c9f;"/><path d="M40,54a1,1,0,0,0,1-1V51a1,1,0,0,0-2,0v2A1,1,0,0,0,40,54Z" style="fill:#8d6c9f;"/><path d="M45,54a1,1,0,0,0,1-1V51a1,1,0,0,0-2,0v2A1,1,0,0,0,45,54Z" style="fill:#8d6c9f;"/><path d="M50,54a1,1,0,0,0,1-1V51a1,1,0,0,0-2,0v2A1,1,0,0,0,50,54Z" style="fill:#8d6c9f;"/><path d="M30,24a1,1,0,0,0,1-1V21a1,1,0,0,0-2,0v2A1,1,0,0,0,30,24Z" style="fill:#8d6c9f;"/><path d="M35,24a1,1,0,0,0,1-1V21a1,1,0,0,0-2,0v2A1,1,0,0,0,35,24Z" style="fill:#8d6c9f;"/><path d="M40,24a1,1,0,0,0,1-1V21a1,1,0,0,0-2,0v2A1,1,0,0,0,40,24Z" style="fill:#8d6c9f;"/><path d="M45,24a1,1,0,0,0,1-1V21a1,1,0,0,0-2,0v2A1,1,0,0,0,45,24Z" style="fill:#8d6c9f;"/><path d="M50,24a1,1,0,0,0,1-1V21a1,1,0,0,0-2,0v2A1,1,0,0,0,50,24Z" style="fill:#8d6c9f;"/><path d="M28.5,28H55a3,3,0,0,0,3-3V12a2,2,0,0,0-2-2H54a2,2,0,0,0-2-2H40.53a1,1,0,0,1-.8-.4L37.9,5.19A3,3,0,0,0,35.51,4H28a2,2,0,0,0-2,2V16H8V9A1,1,0,0,0,6,9V45a3,3,0,0,0,3,3H26v7.5A2.5,2.5,0,0,0,28.5,58H55a3,3,0,0,0,3-3V42a2,2,0,0,0-2-2H54a2,2,0,0,0-2-2H40.53a1,1,0,0,1-.8-.4L37.9,35.19A3,3,0,0,0,35.51,34H28a2,2,0,0,0-2,2V46H9a1,1,0,0,1-1-1V18H26v7.5A2.5,2.5,0,0,0,28.5,28ZM56,42V55a1,1,0,0,1-2,0V42ZM28,36h7.51a1,1,0,0,1,.8.4l1.83,2.42A3,3,0,0,0,40.53,40H52V55a3,3,0,0,0,.17,1H28.5a.5.5,0,0,1-.5-.5ZM56,12V25a1,1,0,0,1-2,0V12ZM28,6h7.51a1,1,0,0,1,.8.4l1.83,2.42A3,3,0,0,0,40.53,10H52V25a3,3,0,0,0,.17,1H28.5a.5.5,0,0,1-.5-.5Z" style="fill:#8d6c9f;"/><path d="M7,6A1,1,0,0,0,8,5V1A1,1,0,0,0,6,1V5A1,1,0,0,0,7,6Z" style="fill:#8d6c9f;"/></svg>
